<svg width="400" height="400" viewBox="0 0 400 400" fill="none" xmlns="http://www.w3.org/2000/svg">
<rect x="35" y="36" width="329" height="329" rx="54" fill="#2535E9"/>
<path d="M60.192 237V210.12C60.192 199.368 64.8853 193.053 74.272 191.176L100.512 185.928C104.864 185.075 107.04 182.216 107.04 177.352V167.112C107.04 161.309 104.139 158.408 98.336 158.408H62.752V153.16L68.512 148.68H98.208C111.264 148.68 117.792 155.208 117.792 168.264V176.584C117.792 187.336 113.099 193.651 103.712 195.528L77.472 200.776C73.12 201.629 70.944 204.488 70.944 209.352V227.272H117.792V237H60.192ZM134.192 217.416V168.264C134.192 155.208 140.72 148.68 153.776 148.68H172.208C185.264 148.68 191.792 155.208 191.792 168.264V217.416C191.792 230.472 185.264 237 172.208 237H153.776C140.72 237 134.192 230.472 134.192 217.416ZM144.944 218.568C144.944 224.371 147.845 227.272 153.648 227.272H172.336C178.139 227.272 181.04 224.371 181.04 218.568V167.112C181.04 161.309 178.139 158.408 172.336 158.408H153.648C147.845 158.408 144.944 161.309 144.944 167.112V218.568ZM208.192 220.488V211.528L237.76 148.68H246.72L248.128 151.24L220.096 210.76H255.04V181.96H265.792V237H255.04V220.488H208.192ZM282.192 217.416V203.208C282.192 199.795 283.259 197.021 285.392 194.888L289.872 190.408L285.392 185.928C283.259 183.795 282.192 181.021 282.192 177.608V168.264C282.192 155.208 288.72 148.68 301.776 148.68H320.208C333.264 148.68 339.792 155.208 339.792 168.264V177.608C339.792 181.021 338.725 183.795 336.592 185.928L332.112 190.408L336.592 194.888C338.725 197.021 339.792 199.795 339.792 203.208V217.416C339.792 230.472 333.264 237 320.208 237H301.776C288.72 237 282.192 230.472 282.192 217.416ZM292.944 218.568C292.944 224.371 295.845 227.272 301.648 227.272H320.336C326.139 227.272 329.04 224.371 329.04 218.568V204.232C329.04 198.429 326.139 195.528 320.336 195.528H301.648C295.845 195.528 292.944 198.429 292.944 204.232V218.568ZM292.944 177.096C292.944 182.899 295.845 185.8 301.648 185.8H320.336C326.139 185.8 329.04 182.899 329.04 177.096V167.112C329.04 161.309 326.139 158.408 320.336 158.408H301.648C295.845 158.408 292.944 161.309 292.944 167.112V177.096Z" fill="white"/>
</svg>
