<svg width="450" height="450" viewBox="0 0 450 450" fill="none" xmlns="http://www.w3.org/2000/svg">
<rect x="25" y="25" width="400" height="400" rx="75" fill="#000DA2"/>
<path d="M85 269.32V242.44C85 231.688 89.6933 225.373 99.08 223.496L125.32 218.248C129.672 217.395 131.848 214.536 131.848 209.672V199.432C131.848 193.629 128.947 190.728 123.144 190.728H87.56V185.48L93.32 181H123.016C136.072 181 142.6 187.528 142.6 200.584V208.904C142.6 219.656 137.907 225.971 128.52 227.848L102.28 233.096C97.928 233.949 95.752 236.808 95.752 241.672V259.592H142.6V269.32H85ZM159 249.736V200.584C159 187.528 165.528 181 178.584 181H197.016C210.072 181 216.6 187.528 216.6 200.584V249.736C216.6 262.792 210.072 269.32 197.016 269.32H178.584C165.528 269.32 159 262.792 159 249.736ZM169.752 250.888C169.752 256.691 172.653 259.592 178.456 259.592H197.144C202.947 259.592 205.848 256.691 205.848 250.888V199.432C205.848 193.629 202.947 190.728 197.144 190.728H178.456C172.653 190.728 169.752 193.629 169.752 199.432V250.888ZM233 252.808V243.848L262.568 181H271.528L272.936 183.56L244.904 243.08H279.848V214.28H290.6V269.32H279.848V252.808H233ZM307 249.736V235.528C307 232.115 308.067 229.341 310.2 227.208L314.68 222.728L310.2 218.248C308.067 216.115 307 213.341 307 209.928V200.584C307 187.528 313.528 181 326.584 181H345.016C358.072 181 364.6 187.528 364.6 200.584V209.928C364.6 213.341 363.533 216.115 361.4 218.248L356.92 222.728L361.4 227.208C363.533 229.341 364.6 232.115 364.6 235.528V249.736C364.6 262.792 358.072 269.32 345.016 269.32H326.584C313.528 269.32 307 262.792 307 249.736ZM317.752 250.888C317.752 256.691 320.653 259.592 326.456 259.592H345.144C350.947 259.592 353.848 256.691 353.848 250.888V236.552C353.848 230.749 350.947 227.848 345.144 227.848H326.456C320.653 227.848 317.752 230.749 317.752 236.552V250.888ZM317.752 209.416C317.752 215.219 320.653 218.12 326.456 218.12H345.144C350.947 218.12 353.848 215.219 353.848 209.416V199.432C353.848 193.629 350.947 190.728 345.144 190.728H326.456C320.653 190.728 317.752 193.629 317.752 199.432V209.416Z" fill="white"/>
</svg>
